<?xml version="1.0" encoding="utf-8"?>
<!-- Generator: Adobe Illustrator 23.0.5, SVG Export Plug-In . SVG Version: 6.00 Build 0)  -->
<svg version="1.1" id="Layer_1" xmlns="http://www.w3.org/2000/svg" xmlns:xlink="http://www.w3.org/1999/xlink" x="0px" y="0px"
	 viewBox="0 0 1080 1080" style="enable-background:new 0 0 1080 1080;" xml:space="preserve">
<style type="text/css">
	.st0{fill:none;stroke:#907AB8;stroke-width:40;stroke-miterlimit:10;}
	.st1{fill:#FFFFFF;}
</style>
<polygon class="st0" points="783.88,117.59 296.12,117.59 52.24,540 296.12,962.41 783.88,962.41 1027.76,540 "/>
<g>
	<path class="st1" d="M743.78,766.26c-28.74,10.32-85.49,27.27-152.56,27.27c-75.17,0-137.08-19.16-185.72-65.59
		c-42.75-41.27-69.28-107.6-69.28-184.98c0.74-148.13,102.44-256.47,269-256.47c57.49,0,102.44,12.53,123.81,22.85l-15.48,52.33
		c-26.53-11.79-59.7-21.37-109.81-21.37c-120.87,0-199.72,75.17-199.72,199.72c0,126.03,75.91,200.46,191.62,200.46
		c42.01,0,70.75-5.9,85.49-13.27V579.06H580.17v-51.59h163.61V766.26z"/>
</g>
</svg>
