<?xml version="1.0" encoding="utf-8"?>
<!-- Generator: Adobe Illustrator 23.0.5, SVG Export Plug-In . SVG Version: 6.00 Build 0)  -->
<svg version="1.1" id="Layer_1" xmlns="http://www.w3.org/2000/svg" xmlns:xlink="http://www.w3.org/1999/xlink" x="0px" y="0px"
	 viewBox="0 0 1080 1080" style="enable-background:new 0 0 1080 1080;" xml:space="preserve">
<style type="text/css">
	.st0{fill:#FFFFFF;}
</style>
<path class="st0" d="M783.88,117.59H296.12L52.24,540l243.88,422.41h487.76L1027.76,540L783.88,117.59z M743.78,766.26
	c-28.74,10.32-85.49,27.27-152.56,27.27c-75.17,0-137.08-19.16-185.72-65.59c-42.75-41.27-69.28-107.6-69.28-184.98
	c0.74-148.13,102.44-256.47,269-256.47c57.49,0,102.44,12.53,123.81,22.85l-15.48,52.33c-26.53-11.79-59.7-21.37-109.81-21.37
	c-120.87,0-199.72,75.17-199.72,199.72c0,126.03,75.91,200.46,191.62,200.46c42.01,0,70.75-5.9,85.49-13.27V579.06H580.17v-51.59
	h163.61V766.26z"/>
</svg>
